<?xml version="1.0" standalone="no"?>
<!DOCTYPE svg PUBLIC "-//W3C//DTD SVG 20010904//EN"
 "http://www.w3.org/TR/2001/REC-SVG-20010904/DTD/svg10.dtd">
<svg version="1.0" xmlns="http://www.w3.org/2000/svg"
 width="100.000000pt" height="100.000000pt" viewBox="0 0 100.000000 100.000000"
 preserveAspectRatio="xMidYMid meet">
<metadata>
Created by potrace 1.14, written by Peter Selinger 2001-2017
</metadata>
<g transform="translate(0.000000,100.000000) scale(0.100000,-0.100000)"
fill="#000000" stroke="none">
<path d="M493 894 c-84 -17 -153 -56 -214 -121 -28 -30 -49 -56 -47 -58 2 -2
34 24 71 60 74 70 135 99 234 110 162 19 324 -74 397 -225 28 -60 31 -73 31
-165 0 -91 -3 -106 -31 -165 -121 -253 -453 -306 -645 -103 -28 30 -54 52 -57
48 -10 -10 99 -112 149 -140 159 -86 357 -56 487 74 158 158 158 410 1 570
-102 104 -234 144 -376 115z"/>
<path d="M18 674 c-4 -3 5 -36 18 -72 61 -166 76 -203 80 -199 4 3 46 115 84
225 l19 52 -85 0 c-52 0 -83 -4 -79 -10 3 -5 31 -9 63 -8 31 0 62 0 69 -1 7
-1 -4 -40 -28 -103 -21 -57 -40 -107 -42 -112 -2 -5 -23 46 -48 113 -25 66
-48 118 -51 115z"/>
<path d="M264 541 c1 -77 4 -142 7 -145 3 -4 6 40 7 96 0 57 1 112 2 123 0 11
20 -20 44 -70 l44 -90 41 88 c23 48 43 87 45 87 2 0 4 -49 4 -110 l0 -110 -79
0 c-43 0 -79 -4 -79 -8 0 -9 170 -11 171 -3 5 34 2 266 -3 274 -4 7 -26 -28
-50 -80 -24 -51 -46 -93 -51 -93 -4 0 -26 41 -49 90 -22 50 -44 90 -48 90 -3
0 -6 -63 -6 -139z"/>
<path d="M550 620 l-20 -20 21 -34 c17 -29 18 -34 4 -40 -8 -3 -15 -17 -15
-31 0 -20 8 -29 33 -40 37 -15 62 -40 71 -71 8 -27 41 -37 57 -18 14 17 41 18
56 3 6 -6 21 -9 34 -7 19 2 24 9 24 33 0 24 -5 31 -23 33 -13 2 -31 -3 -41
-12 -15 -14 -20 -14 -37 -1 -10 8 -31 15 -45 15 -31 0 -59 28 -59 60 0 13 -7
31 -15 40 -14 15 -14 18 0 30 21 18 19 57 -5 70 -15 8 -24 6 -40 -10z m38 -21
c-2 -6 -8 -10 -13 -10 -5 0 -11 4 -13 10 -2 6 4 11 13 11 9 0 15 -5 13 -11z
m2 -110 c0 -5 -7 -9 -15 -9 -15 0 -20 12 -9 23 8 8 24 -1 24 -14z m105 -88 c7
-12 -12 -24 -25 -16 -11 7 -4 25 10 25 5 0 11 -4 15 -9z m105 -12 c0 -5 -7 -9
-15 -9 -15 0 -20 12 -9 23 8 8 24 -1 24 -14z"/>
<path d="M657 622 c-21 -23 -21 -36 -2 -52 21 -17 65 -4 65 19 0 16 -28 51
-42 51 -3 0 -12 -8 -21 -18z m33 -27 c0 -8 -4 -15 -9 -15 -13 0 -22 16 -14 24
11 11 23 6 23 -9z"/>
<path d="M746 597 c-15 -37 -50 -67 -78 -67 -9 0 -20 -9 -23 -21 -9 -26 19
-59 45 -52 20 5 35 36 26 51 -8 13 36 47 69 52 26 4 30 9 30 35 0 25 -4 31
-27 33 -23 3 -30 -2 -42 -31z m46 -2 c0 -5 -5 -11 -11 -13 -6 -2 -11 4 -11 13
0 9 5 15 11 13 6 -2 11 -8 11 -13z m-100 -100 c0 -5 -5 -11 -11 -13 -6 -2 -11
4 -11 13 0 9 5 15 11 13 6 -2 11 -8 11 -13z"/>
<path d="M765 527 c-10 -8 -16 -23 -13 -38 2 -19 9 -24 33 -24 25 0 31 4 33
27 4 34 -26 54 -53 35z m35 -26 c0 -12 -20 -25 -27 -18 -7 7 6 27 18 27 5 0 9
-4 9 -9z"/>
<path d="M547 423 c-16 -15 -6 -54 16 -62 12 -5 26 -6 30 -4 16 9 25 48 15 61
-11 13 -50 17 -61 5z m43 -34 c0 -5 -7 -9 -15 -9 -15 0 -20 12 -9 23 8 8 24
-1 24 -14z"/>
<path d="M206 321 c9 -9 54 -12 54 -4 0 5 -13 8 -30 8 -16 1 -27 -1 -24 -4z"/>
<path d="M290 319 c0 -5 5 -7 10 -4 6 3 10 8 10 11 0 2 -4 4 -10 4 -5 0 -10
-5 -10 -11z"/>
<path d="M326 318 c3 -5 10 -6 15 -3 13 9 11 12 -6 12 -8 0 -12 -4 -9 -9z"/>
<path d="M365 320 c-5 -8 42 -7 49 1 3 3 -6 5 -20 5 -14 0 -27 -3 -29 -6z"/>
<path d="M430 320 c0 -4 7 -7 15 -6 23 3 26 12 5 13 -11 1 -20 -2 -20 -7z"/>
</g>
</svg>
